<svg width="23" height="23" viewBox="0 0 23 23" fill="none" xmlns="http://www.w3.org/2000/svg">
<path fill-rule="evenodd" clip-rule="evenodd" d="M0.491699 11.6446C0.491699 5.44215 5.51979 0.414062 11.7222 0.414062C17.9247 0.414062 22.9528 5.44215 22.9528 11.6446C22.9528 17.8471 17.9247 22.8752 11.7222 22.8752C5.51979 22.8752 0.491699 17.8471 0.491699 11.6446ZM13.3873 9.15044H16.5596V8.24157H13.3873V9.15044ZM16.28 9.91339C15.8982 9.74454 15.4693 9.65977 14.9925 9.65977C14.1902 9.65977 13.5387 9.91061 13.0351 10.4088C12.533 10.9084 12.2815 11.6262 12.2815 12.5622C12.2815 13.56 12.559 14.2812 13.1175 14.7238C13.6733 15.1672 14.3163 15.3881 15.0453 15.3881C15.9278 15.3881 16.6146 15.1255 17.1048 14.6009C17.4189 14.2701 17.5964 13.9442 17.6351 13.6246H16.1736C16.0891 13.783 15.9905 13.9067 15.8785 13.9963C15.675 14.161 15.4094 14.2437 15.0847 14.2437C14.7762 14.2437 14.5135 14.1756 14.2952 14.0401C13.9346 13.8226 13.7458 13.4425 13.7219 12.9013H17.7105C17.7168 12.435 17.7013 12.0765 17.6626 11.8291C17.5964 11.4059 17.4513 11.0335 17.2252 10.7125C16.9773 10.3484 16.6624 10.0815 16.28 9.91339ZM11.2285 8.67933C10.8517 8.17348 10.2129 7.9143 9.30993 7.90109H5.73262V15.204H9.06834C9.44445 15.204 9.79239 15.172 10.1143 15.106C10.4362 15.0393 10.7144 14.9177 10.9503 14.7391C11.1602 14.5835 11.3349 14.3917 11.4743 14.1645C11.6948 13.8212 11.8047 13.4328 11.8047 12.9999C11.8047 12.5802 11.7082 12.2231 11.5166 11.9298C11.3229 11.6359 11.0384 11.4212 10.6608 11.285C10.9095 11.16 11.0975 11.021 11.2257 10.8695C11.4546 10.5985 11.568 10.2393 11.568 9.79387C11.568 9.36098 11.4546 8.98993 11.2285 8.67933Z" fill="black"/>
<path fill-rule="evenodd" clip-rule="evenodd" d="M7.20825 9.16943H8.81976C9.17404 9.16943 9.46564 9.20765 9.69525 9.28339C9.96008 9.39318 10.0925 9.61761 10.0925 9.95879C10.0925 10.2645 9.99177 10.4785 9.79174 10.5994C9.5903 10.7203 9.329 10.7808 9.00853 10.7808H7.20825V9.16943ZM14.1389 11.1338C14.341 10.9281 14.627 10.8253 14.9932 10.8253C15.3313 10.8253 15.6138 10.9219 15.8434 11.1157C16.0702 11.311 16.1983 11.5945 16.2244 11.9697H13.7571C13.8093 11.6181 13.9367 11.3395 14.1389 11.1338ZM7.20825 11.9891H9.03106C9.34801 11.9919 9.59523 12.0336 9.77132 12.1128C10.0862 12.2553 10.2425 12.5158 10.2425 12.8966C10.2425 13.3455 10.0805 13.6485 9.75582 13.8083C9.57763 13.8937 9.32688 13.9368 9.00571 13.9368H7.20825V11.9891Z" fill="black"/>
</svg>
