<svg width="23" height="23" viewBox="0 0 23 23" fill="none" xmlns="http://www.w3.org/2000/svg">
<path fill-rule="evenodd" clip-rule="evenodd" d="M-0.000976562 11.5992C-0.000976562 5.39674 5.02711 0.368652 11.2296 0.368652C17.432 0.368652 22.4601 5.39674 22.4601 11.5992C22.4601 17.8017 17.432 22.8297 11.2296 22.8297C5.02711 22.8297 -0.000976562 17.8017 -0.000976562 11.5992ZM11.2301 5.60957C9.60343 5.60957 9.39929 5.61669 8.76038 5.64576C8.12273 5.67496 7.68748 5.77591 7.30664 5.92403C6.91269 6.07702 6.57852 6.28167 6.24559 6.61472C5.91241 6.94765 5.70777 7.28182 5.55428 7.67564C5.40579 8.05661 5.30471 8.49199 5.27601 9.12939C5.24743 9.76829 5.23995 9.97256 5.23995 11.5993C5.23995 13.226 5.24718 13.4295 5.27613 14.0684C5.30546 14.706 5.40641 15.1413 5.5544 15.5221C5.70752 15.9161 5.91216 16.2503 6.24522 16.5832C6.57802 16.9164 6.91219 17.1215 7.30589 17.2745C7.68698 17.4226 8.12236 17.5236 8.75989 17.5528C9.39879 17.5818 9.60281 17.5889 11.2294 17.5889C12.8562 17.5889 13.0597 17.5818 13.6986 17.5528C14.3363 17.5236 14.772 17.4226 15.1531 17.2745C15.547 17.1215 15.8806 16.9164 16.2134 16.5832C16.5466 16.2503 16.7513 15.9161 16.9047 15.5223C17.052 15.1413 17.1531 14.7059 17.183 14.0685C17.2117 13.4296 17.2192 13.226 17.2192 11.5993C17.2192 9.97256 17.2117 9.76841 17.183 9.12951C17.1531 8.49186 17.052 8.05661 16.9047 7.67577C16.7513 7.28182 16.5466 6.94765 16.2134 6.61472C15.8803 6.28154 15.5471 6.0769 15.1528 5.92403C14.7709 5.77591 14.3354 5.67496 13.6978 5.64576C13.0589 5.61669 12.8555 5.60957 11.2283 5.60957H11.2301Z" fill="black"/>
<path fill-rule="evenodd" clip-rule="evenodd" d="M10.693 6.689C10.8525 6.68875 11.0305 6.689 11.2304 6.689C12.8296 6.689 13.0192 6.69474 13.6507 6.72344C14.2347 6.75014 14.5516 6.84772 14.7628 6.92971C15.0423 7.03827 15.2416 7.16805 15.4511 7.37769C15.6607 7.58733 15.7905 7.78698 15.8993 8.0665C15.9813 8.27739 16.079 8.59434 16.1056 9.17834C16.1343 9.80975 16.1405 9.99942 16.1405 11.5979C16.1405 13.1964 16.1343 13.3861 16.1056 14.0175C16.0789 14.6015 15.9813 14.9185 15.8993 15.1293C15.7908 15.4089 15.6607 15.6079 15.4511 15.8174C15.2415 16.027 15.0424 16.1568 14.7628 16.2654C14.5519 16.3477 14.2347 16.4451 13.6507 16.4718C13.0193 16.5005 12.8296 16.5067 11.2304 16.5067C9.63099 16.5067 9.44144 16.5005 8.81003 16.4718C8.22604 16.4448 7.90908 16.3472 7.69782 16.2653C7.4183 16.1567 7.21865 16.0269 7.00901 15.8173C6.79937 15.6076 6.66959 15.4085 6.56078 15.1288C6.4788 14.918 6.38109 14.601 6.35451 14.017C6.32581 13.3856 6.32007 13.1959 6.32007 11.5964C6.32007 9.99693 6.32581 9.80825 6.35451 9.17684C6.38121 8.59284 6.4788 8.27589 6.56078 8.06475C6.66934 7.78523 6.79937 7.58558 7.00901 7.37594C7.21865 7.1663 7.4183 7.03652 7.69782 6.92771C7.90896 6.84535 8.22604 6.74802 8.81003 6.72119C9.36258 6.69623 9.57671 6.68875 10.693 6.6875V6.689ZM14.4276 7.68353C14.0308 7.68353 13.7088 8.00511 13.7088 8.40205C13.7088 8.79886 14.0308 9.12081 14.4276 9.12081C14.8244 9.12081 15.1464 8.79886 15.1464 8.40205C15.1464 8.00523 14.8244 7.68329 14.4276 7.68329V7.68353ZM11.2304 8.52334C9.53166 8.52334 8.15441 9.90059 8.15441 11.5993C8.15441 13.298 9.53166 14.6746 11.2304 14.6746C12.9291 14.6746 14.3058 13.298 14.3058 11.5993C14.3058 9.90059 12.9289 8.52334 11.2302 8.52334H11.2304Z" fill="black"/>
<path fill-rule="evenodd" clip-rule="evenodd" d="M11.2302 9.60303C12.3328 9.60303 13.2268 10.4969 13.2268 11.5996C13.2268 12.7022 12.3328 13.5962 11.2302 13.5962C10.1275 13.5962 9.23364 12.7022 9.23364 11.5996C9.23364 10.4969 10.1275 9.60303 11.2302 9.60303Z" fill="black"/>
</svg>
