<svg width="23" height="23" viewBox="0 0 23 23" fill="none" xmlns="http://www.w3.org/2000/svg">
<path fill-rule="evenodd" clip-rule="evenodd" d="M0.245605 11.6905C0.245605 5.48805 5.27369 0.459961 11.4762 0.459961C17.6786 0.459961 22.7067 5.48805 22.7067 11.6905C22.7067 17.893 17.6786 22.9211 11.4762 22.9211C5.27369 22.9211 0.245605 17.893 0.245605 11.6905ZM8.18211 9.76159H5.63702V17.4085H8.18211V9.76159ZM8.34974 7.39609C8.33322 6.64631 7.79705 6.07523 6.92639 6.07523C6.05573 6.07523 5.48653 6.64631 5.48653 7.39609C5.48653 8.13033 6.03891 8.71785 6.89335 8.71785H6.90962C7.79705 8.71785 8.34974 8.13033 8.34974 7.39609ZM17.3607 13.024C17.3607 10.6752 16.1051 9.58203 14.4303 9.58203C13.079 9.58203 12.4741 10.3242 12.1363 10.8449V9.76179H9.59087C9.62442 10.4793 9.59087 17.4087 9.59087 17.4087H12.1363V13.138C12.1363 12.9095 12.1528 12.6815 12.2201 12.5179C12.404 12.0613 12.8228 11.5886 13.526 11.5886C14.4473 11.5886 14.8156 12.2898 14.8156 13.3174V17.4085H17.3606L17.3607 13.024Z" fill="black"/>
</svg>
